<svg width="213" height="250" viewBox="0 0 213 250" fill="none" xmlns="http://www.w3.org/2000/svg">
<path d="M0 52.3136V133.299L30.9356 128.269V116.7L12.0724 119.718V50.3015L0 52.3136Z" fill="#E87722"/>
<path d="M73.6921 51.8111V40.2417L42.002 45.5234V126.509L73.6921 121.228V109.155L54.3259 112.425V88.0284L68.1589 85.7648V73.9439L54.3259 76.459V55.0807L73.6921 51.8111Z" fill="#E87722"/>
<path d="M109.155 115.443V46.0261L121.73 44.014V32.1931L84.5068 38.4808V50.0503L97.0823 48.0382V117.455L109.155 115.443Z" fill="#E87722"/>
<path d="M132.042 57.5958L138.078 42.2537V29.4268L126.509 31.4388V44.2658L130.533 43.5113L126.509 58.6018L132.042 57.5958Z" fill="#E87722"/>
<path d="M160.211 96.5795C155.181 97.334 152.666 93.8129 152.163 85.7646L140.845 89.5373C141.348 103.622 149.145 110.664 160.714 108.652C171.529 106.891 179.577 97.334 179.577 85.2616C179.577 73.9437 174.295 68.662 165.996 61.8713C159.205 56.0866 153.923 52.0624 153.923 44.7686C153.923 40.2415 156.69 36.9719 160.462 36.2173C164.99 35.4628 166.75 38.2294 167.002 45.2717L178.823 41.499C177.817 28.9236 170.774 22.6358 160.714 24.3964C150.402 26.157 141.851 36.2173 141.851 47.7868C141.851 58.3501 148.138 64.1348 156.941 71.6801C163.481 77.2133 167.756 80.7344 167.756 87.5252C167.756 92.3039 164.738 95.825 160.211 96.5795Z" fill="#E87722"/>
<path d="M12.0724 190.141L17.8571 189.135L25.4024 222.083L37.9779 220.07L29.1751 183.853C34.9598 178.823 36.7203 172.284 36.7203 162.726C36.7203 146.127 30.9356 140.342 17.8571 142.354L0 145.121V226.107L12.0724 224.095V190.141ZM12.0724 154.93L16.3481 154.175C22.1328 153.169 24.1449 155.433 24.1449 164.235C24.1449 173.29 22.6358 176.811 16.5996 177.817L11.8209 178.571V154.93H12.0724Z" fill="#E87722"/>
<path d="M61.368 217.807C73.1889 215.795 79.9797 206.992 79.9797 192.656V151.157C79.9797 138.078 72.6859 131.539 61.871 133.3C49.7986 135.312 42.7563 144.115 42.7563 156.942V198.441C42.7563 213.28 49.2956 219.819 61.368 217.807ZM55.0803 153.924C55.0803 148.39 57.0924 145.121 61.368 144.618C65.6437 144.115 67.6557 146.378 67.6557 151.911V197.183C67.6557 202.716 65.6437 205.986 61.368 206.74C57.3439 207.495 55.0803 204.98 55.0803 199.195V153.924Z" fill="#E87722"/>
<path d="M95.0704 210.513L97.5855 192.404L109.909 190.392L112.425 207.495L124.748 205.483L111.922 126.509L96.0765 129.024L83.2495 212.273L95.0704 210.513ZM103.622 146.378L104.376 146.126L108.4 179.326L99.0946 180.835L103.622 146.378Z" fill="#E87722"/>
<path d="M164.236 118.209L156.69 164.487C155.936 168.511 155.684 172.535 155.684 176.811C155.684 172.535 155.433 168.26 154.678 164.738L146.881 120.976L130.785 123.742V204.98L142.103 203.219V151.66C142.103 148.39 141.851 143.612 141.348 137.575C141.6 138.581 142.103 142.354 143.36 148.642L152.163 201.207L158.199 200.201L168.008 144.618C168.511 142.354 169.014 138.581 170.02 132.797C169.266 140.091 169.014 144.869 169.014 147.133V198.441L180.332 196.68V115.443L164.236 118.209Z" fill="#E87722"/>
<path d="M180.584 0L0 28.672V40.7445L180.584 11.8209V0Z" fill="#E87722"/>
<path d="M0 250L180.584 221.076V209.255L0 237.927V250Z" fill="#E87722"/>
<path d="M204.981 9.55746C204.981 7.54539 203.723 6.28784 201.459 6.28784H197.435V16.5997H199.447V12.8271H201.208L203.22 16.5997H205.484L203.22 12.5756C204.478 12.0725 204.981 11.0665 204.981 9.55746ZM202.968 9.80897C202.968 10.815 202.465 11.318 201.459 11.318H199.699V8.29991H201.459C202.465 8.29991 202.968 8.80293 202.968 9.80897Z" fill="#E87722"/>
<path d="M201.208 0C194.92 0 189.639 5.28169 189.639 11.5694C189.639 17.8571 194.92 23.1388 201.208 23.1388C207.496 23.1388 212.777 17.8571 212.777 11.5694C212.777 5.28169 207.496 0 201.208 0ZM210.514 11.5694C210.514 16.8511 206.238 21.1268 200.957 21.1268C195.675 21.1268 191.399 16.8511 191.399 11.5694C191.399 6.28773 195.675 2.01207 200.957 2.01207C206.49 2.01207 210.514 6.28773 210.514 11.5694Z" fill="#E87722"/>
</svg>
